<svg width="19" height="20" viewBox="0 0 19 20" fill="none" xmlns="http://www.w3.org/2000/svg">
<path d="M14.3293 14.9747C14.5976 14.7679 14.6475 14.3827 14.4406 14.1143C14.2338 13.846 13.8486 13.7961 13.5802 14.003L14.3293 14.9747ZM9.49976 16.0512V16.6648L9.5099 16.6646L9.49976 16.0512ZM1.24976 9.98374L0.707858 9.69619C0.615351 9.87053 0.612367 10.0787 0.69984 10.2556L1.24976 9.98374ZM5.4197 5.96417C5.68786 5.75709 5.73738 5.37184 5.5303 5.10368C5.32323 4.83552 4.93798 4.786 4.66982 4.99307L5.4197 5.96417ZM7.78337 3.50134C7.45367 3.57938 7.24967 3.90991 7.32771 4.23961C7.40575 4.56931 7.73628 4.77331 8.06598 4.69527L7.78337 3.50134ZM9.49967 3.91628L9.49821 4.52974H9.49967V3.91628ZM17.7497 9.98378L18.292 10.2705C18.3841 10.0963 18.3869 9.88848 18.2996 9.71188L17.7497 9.98378ZM15.6581 12.0108C15.4414 12.2712 15.4769 12.658 15.7373 12.8748C15.9977 13.0915 16.3845 13.056 16.6012 12.7956L15.6581 12.0108ZM11.541 12.0073C11.7706 11.7581 11.7547 11.37 11.5056 11.1405C11.2564 10.9109 10.8683 10.9267 10.6387 11.1759L11.541 12.0073ZM8.33059 8.8223C8.57718 8.58995 8.58871 8.2017 8.35636 7.95512C8.12401 7.70854 7.73576 7.697 7.48918 7.92936L8.33059 8.8223ZM13.5802 14.003C12.4023 14.911 10.9688 15.4134 9.48962 15.4379L9.5099 16.6646C11.2543 16.6358 12.9431 16.0432 14.3293 14.9747L13.5802 14.003ZM9.49976 15.4378C7.12255 15.4378 5.21156 14.0627 3.85588 12.6004C3.18389 11.8756 2.6667 11.1483 2.31756 10.6016C2.14336 10.3288 2.012 10.1026 1.92502 9.94624C1.88156 9.8681 1.84924 9.80753 1.82827 9.76745C1.81779 9.74742 1.81015 9.73252 1.80537 9.72313C1.80298 9.71843 1.80131 9.71511 1.80036 9.71321C1.79989 9.71226 1.79959 9.71167 1.79948 9.71144C1.79942 9.71132 1.79941 9.7113 1.79944 9.71137C1.79945 9.7114 1.79951 9.71152 1.79952 9.71153C1.79959 9.71167 1.79967 9.71184 1.24976 9.98374C0.69984 10.2556 0.699944 10.2558 0.70006 10.2561C0.700113 10.2562 0.700241 10.2564 0.700349 10.2567C0.700564 10.2571 0.700826 10.2576 0.701135 10.2582C0.701751 10.2595 0.702553 10.2611 0.703539 10.2631C0.705512 10.267 0.708224 10.2724 0.711673 10.2792C0.71857 10.2927 0.728415 10.3119 0.741186 10.3363C0.766725 10.3851 0.803992 10.4549 0.85281 10.5427C0.9504 10.7181 1.09443 10.9659 1.28352 11.262C1.66093 11.8529 2.22187 12.6425 2.95613 13.4346C4.41295 15.006 6.62697 16.6647 9.49976 16.6647V15.4378ZM1.79165 10.2713C2.68384 8.58991 3.92098 7.12148 5.4197 5.96417L4.66982 4.99307C3.03223 6.25762 1.68151 7.86129 0.707858 9.69619L1.79165 10.2713ZM8.06598 4.69527C8.53548 4.58414 9.01611 4.52859 9.49821 4.52974L9.50113 3.30282C8.92283 3.30144 8.34637 3.36807 7.78337 3.50134L8.06598 4.69527ZM9.49967 4.52974C11.8769 4.52974 13.7879 5.90477 15.1435 7.3671C15.8155 8.09195 16.3327 8.81922 16.6819 9.36592C16.8561 9.63867 16.9874 9.8649 17.0744 10.0213C17.1179 10.0994 17.1502 10.16 17.1712 10.2001C17.1816 10.2201 17.1893 10.235 17.1941 10.2444C17.1964 10.2491 17.1981 10.2524 17.1991 10.2543C17.1995 10.2552 17.1998 10.2558 17.2 10.2561C17.2 10.2562 17.2 10.2562 17.2 10.2561C17.2 10.2561 17.1999 10.256 17.1999 10.256C17.1998 10.2558 17.1998 10.2557 17.7497 9.98378C18.2996 9.71188 18.2995 9.71167 18.2994 9.71143C18.2993 9.71132 18.2992 9.71107 18.2991 9.71085C18.2989 9.71042 18.2986 9.70989 18.2983 9.70927C18.2977 9.70803 18.2969 9.70642 18.2959 9.70446C18.2939 9.70052 18.2912 9.69514 18.2878 9.68836C18.2809 9.67479 18.271 9.65562 18.2582 9.63121C18.2327 9.5824 18.1954 9.51262 18.1466 9.42486C18.049 9.24941 17.905 9.00161 17.7159 8.70554C17.3385 8.11458 16.7776 7.32498 16.0433 6.53296C14.5865 4.96153 12.3725 3.30282 9.49967 3.30282V4.52974ZM17.2073 9.69709C16.7719 10.5209 16.2526 11.2963 15.6581 12.0108L16.6012 12.7956C17.2503 12.0156 17.8169 11.1693 18.292 10.2705L17.2073 9.69709ZM10.6387 11.1759C10.2301 11.6194 9.61718 11.8 9.04042 11.6511L8.73362 12.839C9.75126 13.1018 10.8279 12.7812 11.541 12.0073L10.6387 11.1759ZM9.04042 11.6511C8.46309 11.502 8.00786 11.0446 7.85852 10.4533L6.66894 10.7537C6.92678 11.7747 7.71655 12.5763 8.73362 12.839L9.04042 11.6511ZM7.85852 10.4533C7.70905 9.86142 7.89165 9.23592 8.33059 8.8223L7.48918 7.92936C6.7242 8.65019 6.41122 9.7332 6.66894 10.7537L7.85852 10.4533Z" fill="#7C7C7C" fill-opacity="0.7"/>
<path d="M1.24976 1.64087L17.7498 18.3265" stroke="#7C7C7C" stroke-opacity="0.7" stroke-width="1.22693" stroke-linecap="round" stroke-linejoin="round"/>
</svg>
