<svg width="19" height="14" viewBox="0 0 19 14" fill="none" xmlns="http://www.w3.org/2000/svg">
<path d="M14.3293 11.9747C14.5976 11.7679 14.6475 11.3827 14.4406 11.1143C14.2338 10.846 13.8486 10.7961 13.5802 11.003L14.3293 11.9747ZM9.49976 13.0512V13.6648L9.5099 13.6646L9.49976 13.0512ZM1.24976 6.98374L0.707858 6.69619C0.615351 6.87053 0.612367 7.07872 0.69984 7.25564L1.24976 6.98374ZM5.4197 2.96417C5.68786 2.75709 5.73738 2.37184 5.5303 2.10368C5.32323 1.83552 4.93798 1.786 4.66982 1.99307L5.4197 2.96417ZM7.78337 0.501337C7.45367 0.579379 7.24967 0.909914 7.32771 1.23961C7.40575 1.56931 7.73628 1.77331 8.06598 1.69527L7.78337 0.501337ZM9.49967 0.916279L9.49821 1.52974H9.49967V0.916279ZM17.7497 6.98378L18.292 7.27046C18.3841 7.09628 18.3869 6.88848 18.2996 6.71188L17.7497 6.98378ZM15.6581 9.01081C15.4414 9.27124 15.4769 9.65804 15.7373 9.87475C15.9977 10.0915 16.3845 10.056 16.6012 9.79558L15.6581 9.01081ZM11.541 9.0073C11.7706 8.75814 11.7547 8.37005 11.5056 8.14046C11.2564 7.91087 10.8683 7.92674 10.6387 8.1759L11.541 9.0073ZM8.33059 5.8223C8.57718 5.58995 8.58871 5.2017 8.35636 4.95512C8.12401 4.70854 7.73576 4.697 7.48918 4.92936L8.33059 5.8223ZM13.5802 11.003C12.4023 11.911 10.9688 12.4134 9.48962 12.4379L9.5099 13.6646C11.2543 13.6358 12.9431 13.0432 14.3293 11.9747L13.5802 11.003ZM9.49976 12.4378C7.12255 12.4378 5.21156 11.0627 3.85588 9.60042C3.18389 8.87556 2.6667 8.14829 2.31756 7.60159C2.14336 7.32884 2.012 7.10262 1.92502 6.94624C1.88156 6.8681 1.84924 6.80753 1.82827 6.76745C1.81779 6.74742 1.81015 6.73252 1.80537 6.72313C1.80298 6.71843 1.80131 6.71511 1.80036 6.71321C1.79989 6.71226 1.79959 6.71167 1.79948 6.71144C1.79942 6.71132 1.79941 6.7113 1.79944 6.71137C1.79945 6.7114 1.79951 6.71152 1.79952 6.71153C1.79959 6.71167 1.79967 6.71184 1.24976 6.98374C0.69984 7.25564 0.699944 7.25585 0.70006 7.25608C0.700113 7.25619 0.700241 7.25644 0.700349 7.25666C0.700564 7.2571 0.700826 7.25762 0.701135 7.25824C0.701751 7.25948 0.702553 7.26109 0.703539 7.26306C0.705512 7.26699 0.708224 7.27237 0.711673 7.27916C0.71857 7.29272 0.728415 7.3119 0.741186 7.3363C0.766725 7.38511 0.803992 7.45489 0.85281 7.54265C0.9504 7.7181 1.09443 7.9659 1.28352 8.26198C1.66093 8.85293 2.22187 9.64253 2.95613 10.4346C4.41295 12.006 6.62697 13.6647 9.49976 13.6647V12.4378ZM1.79165 7.27128C2.68384 5.58991 3.92098 4.12148 5.4197 2.96417L4.66982 1.99307C3.03223 3.25762 1.68151 4.86129 0.707858 6.69619L1.79165 7.27128ZM8.06598 1.69527C8.53548 1.58414 9.01611 1.52859 9.49821 1.52974L9.50113 0.302818C8.92283 0.301444 8.34637 0.368072 7.78337 0.501337L8.06598 1.69527ZM9.49967 1.52974C11.8769 1.52974 13.7879 2.90477 15.1435 4.3671C15.8155 5.09195 16.3327 5.81922 16.6819 6.36592C16.8561 6.63867 16.9874 6.8649 17.0744 7.02127C17.1179 7.09941 17.1502 7.15999 17.1712 7.20006C17.1816 7.22009 17.1893 7.23499 17.1941 7.24438C17.1964 7.24908 17.1981 7.2524 17.1991 7.2543C17.1995 7.25525 17.1998 7.25584 17.2 7.25607C17.2 7.25619 17.2 7.25621 17.2 7.25615C17.2 7.25611 17.1999 7.256 17.1999 7.25598C17.1998 7.25584 17.1998 7.25567 17.7497 6.98378C18.2996 6.71188 18.2995 6.71167 18.2994 6.71143C18.2993 6.71132 18.2992 6.71107 18.2991 6.71085C18.2989 6.71042 18.2986 6.70989 18.2983 6.70927C18.2977 6.70803 18.2969 6.70642 18.2959 6.70446C18.2939 6.70052 18.2912 6.69514 18.2878 6.68836C18.2809 6.67479 18.271 6.65562 18.2582 6.63121C18.2327 6.5824 18.1954 6.51262 18.1466 6.42486C18.049 6.24941 17.905 6.00161 17.7159 5.70554C17.3385 5.11458 16.7776 4.32498 16.0433 3.53296C14.5865 1.96153 12.3725 0.302816 9.49967 0.302816V1.52974ZM17.2073 6.69709C16.7719 7.52087 16.2526 8.2963 15.6581 9.01081L16.6012 9.79558C17.2503 9.01556 17.8169 8.16926 18.292 7.27046L17.2073 6.69709ZM10.6387 8.1759C10.2301 8.61944 9.61718 8.8 9.04042 8.65105L8.73362 9.839C9.75126 10.1018 10.8279 9.78123 11.541 9.0073L10.6387 8.1759ZM9.04042 8.65105C8.46309 8.50196 8.00786 8.04463 7.85852 7.45327L6.66894 7.75369C6.92678 8.77466 7.71655 9.57634 8.73362 9.839L9.04042 8.65105ZM7.85852 7.45327C7.70905 6.86142 7.89165 6.23592 8.33059 5.8223L7.48918 4.92936C6.7242 5.65019 6.41122 6.7332 6.66894 7.75369L7.85852 7.45327Z" fill="#7C7C7C" fill-opacity="0.7"/>
</svg>
