<svg width="224" height="60" viewBox="0 0 224 60" fill="none" xmlns="http://www.w3.org/2000/svg">
<path d="M93.6 35.08C97.4 43.96 97.08 44.64 95.36 44.64H94.52C94.2 44.64 94.32 45 94.64 45C95.8 45 98.88 44.88 99.48 44.88C100.08 44.88 102.36 45 103.52 45C103.68 45 103.76 44.92 103.76 44.8C103.76 44.72 103.68 44.64 103.48 44.64H103.16C101.24 44.64 100.64 44 96.68 34.64L89.4 17.28C89.36 17.2 89.24 17.16 89 17.16H88.6C88.4 17.16 88.36 17.2 88.32 17.28L80.6 36.56C79.96 38.24 78.96 40.52 77.96 42.24C77.12 43.8 76.2 44.64 75.08 44.64H74.92C74.8 44.64 74.68 44.72 74.68 44.8C74.68 44.92 74.76 45 74.92 45C75.92 45 77.72 44.92 78.24 44.92C78.92 44.92 82.08 45 82.8 45C83.2 45 83.28 44.88 83.28 44.76C83.28 44.64 83.2 44.56 83 44.56C82.84 44.56 82.2 44.68 81.88 44.68C80.44 44.68 79.64 44 79.64 42.72C79.64 40.96 80.4 38.44 81.08 36.76L81.76 35.08C82.96 35.12 86.96 35.2 88.92 35.2L93.6 35.08ZM93.4 34.64V34.68H88.68L81.88 34.72L87.44 20.68L93.4 34.64ZM112.616 25C111.176 25 109.896 25.04 108.656 25.04C108.696 18.8 110.296 16.08 113.016 16.08C115.416 16.08 117.456 16.84 118.776 16.84C120.056 16.84 120.936 15.48 120.936 14.8C120.936 14.24 118.896 13.76 116.856 13.76C112.496 13.76 107.136 18.88 105.896 25.04H104.856L103.456 26.96C103.456 27.16 103.656 27.2 104.016 27.2H105.656V27.6C105.656 27.76 105.696 40.6 105.696 40.6C105.696 44.16 105.656 44.64 103.376 44.64C103.056 44.64 103.056 45 103.376 45C104.536 45 106.656 44.92 107.256 44.92C107.856 44.92 110.096 45 111.256 45C111.576 45 111.576 44.64 111.256 44.64C108.896 44.64 108.736 44.52 108.696 40.6C108.696 40.6 108.656 30.88 108.656 27.2C110.016 27.2 111.416 27.24 112.536 27.24C113.376 26.32 114.416 25.32 114.416 25.08C114.416 25 114.176 25 113.016 25H112.616ZM122.897 25.28C121.817 26 120.737 26.92 120.257 28.68C120.097 27.12 119.217 25.64 118.537 25C118.417 24.88 118.377 24.88 118.297 24.96C117.617 25.64 116.257 26.36 115.537 26.64C115.457 26.68 115.417 26.76 115.537 26.88C116.457 27.72 117.377 28.76 117.377 29.92V40.24C117.377 44.4 117.097 44.64 115.137 44.64C114.817 44.64 114.817 45 115.137 45C116.297 45 118.617 44.92 119.217 44.92C119.857 44.92 122.457 45 122.777 45C123.097 45 123.097 44.64 122.777 44.64H120.337V31.24C120.337 27.8 120.617 27.4 123.497 27.4H124.977C126.377 27.4 126.977 25.96 126.977 25.32C126.977 24.8 126.137 24.6 125.177 24.6C124.377 24.6 123.577 24.84 122.897 25.28ZM136.751 45.4C142.791 45.4 147.231 39.88 147.231 34.72C147.231 28.56 143.031 24.6 137.391 24.6C131.231 24.6 126.831 29.64 126.831 35.4C126.831 41.44 131.111 45.4 136.751 45.4ZM137.431 44.96C132.791 44.96 130.151 39.64 130.151 34.72C130.151 28.88 132.231 25 136.911 25C141.311 25 143.991 30.36 143.991 35.36C143.991 41.28 141.671 44.96 137.431 44.96ZM153.473 44.92C154.073 44.92 155.633 45 156.793 45C157.113 45 157.113 44.64 156.793 44.64C154.593 44.64 154.433 44.4 154.433 40.24V12.76C154.433 12.56 153.833 12.4 153.713 12.48C152.353 13.24 150.873 13.92 148.873 14.28C148.553 14.32 148.553 14.68 148.873 14.64C150.873 14.28 151.433 14.32 151.433 17.76V40.24C151.433 44.16 151.353 44.64 149.633 44.64C149.313 44.64 149.313 45 149.633 45C150.793 45 152.873 44.92 153.473 44.92ZM159.789 37.28C159.789 43.56 162.629 45.4 166.229 45.4C169.269 45.4 171.589 43.76 173.629 41.04C173.589 43.28 173.229 44.8 173.229 45.04C173.229 45.28 173.229 45.44 173.549 45.4C174.669 45.28 176.269 45 178.749 45C178.989 45 178.989 44.64 178.749 44.64C176.789 44.64 176.629 44.28 176.629 40.24V25.04C176.629 24.84 176.029 24.68 175.909 24.76C174.549 25.52 173.069 26.2 171.069 26.56C170.749 26.6 170.749 26.96 171.069 26.92C173.069 26.56 173.629 26.48 173.629 29.92V40.56C171.709 43.12 170.069 44.2 167.549 44.2C165.109 44.2 162.829 42.64 162.829 37.68V25.04C162.829 24.84 162.229 24.68 162.109 24.76C160.749 25.52 159.229 26.2 157.229 26.56C156.909 26.6 156.909 26.96 157.229 26.92C159.229 26.56 159.789 26.48 159.789 29.92V37.28ZM191.293 33.76L193.173 31.28C196.053 27.44 198.093 25.36 200.013 25.4C200.293 25.4 200.293 25.04 200.013 25.04C199.733 25.04 197.093 25.12 196.533 25.12C196.013 25.12 193.933 25.04 192.853 25.04C192.573 25.04 192.573 25.4 192.853 25.4C194.213 25.4 194.973 25.76 195.013 26.64C195.053 27.52 194.413 28.96 192.853 31.04L191.053 33.44L188.253 29.28C185.693 25.48 185.933 25.36 188.293 25.36C188.613 25.36 188.533 25 188.213 25C187.213 25 184.533 25.08 183.973 25.08C183.413 25.08 180.293 25 180.053 25C179.813 25 179.893 25.36 180.133 25.36C181.973 25.32 182.413 25.48 185.733 30.48L188.933 35.24L186.213 38.72C182.853 43.08 180.973 44.68 179.653 44.64C179.373 44.64 179.373 45 179.653 45C179.933 45 182.213 44.92 182.773 44.92C183.253 44.92 185.573 45 186.573 45C186.893 45 186.893 44.64 186.573 44.64C185.293 44.64 184.533 44.08 184.533 42.96C184.533 42.04 185.133 40.72 186.453 39L189.133 35.6L192.613 40.72C195.213 44.52 194.573 44.64 192.213 44.64C191.893 44.64 191.973 45 192.293 45C193.293 45 196.493 44.92 197.053 44.92C197.573 44.92 200.493 45 200.773 45C201.053 45 200.973 44.64 200.693 44.64C198.853 44.68 198.533 44.52 195.173 39.52L191.293 33.76ZM210.502 45.4C216.542 45.4 220.742 40.32 222.862 35.4C223.062 34.96 222.782 34.84 222.582 35.32C220.382 40.08 217.422 43.08 212.542 43.08C207.142 43.08 202.862 39.24 202.862 34.32C202.862 33.2 202.982 32.16 203.182 31.24H216.862C218.102 31.24 218.462 30.68 218.542 30C218.782 28.16 217.342 24.6 211.582 24.6C206.062 24.6 200.462 29.8 200.462 35.8C200.462 41.32 204.382 45.4 210.502 45.4ZM213.102 30.76C210.502 30.76 207.782 30.92 203.262 30.92C204.302 27.32 207.022 25.48 210.462 25.48C213.542 25.48 215.062 27.6 215.062 29.12C215.062 29.64 214.942 30.12 214.702 30.4C214.582 30.52 213.662 30.76 213.102 30.76Z" fill="#242424"/>
<path d="M1.08496 12.1804C1.59162 12.3495 2.04629 12.2308 2.45162 11.8236L9.63963 4.59156L10.553 5.51049L3.36496 12.7419C2.96029 13.149 2.84162 13.6071 3.01029 14.1169C3.18029 14.6267 3.50029 14.9486 3.97162 15.0841C4.44296 15.2196 4.88296 15.0841 5.28829 14.677L12.4763 7.44494L13.4876 8.46247L6.30096 15.6945C5.89629 16.1017 5.77763 16.5611 5.94629 17.0709C6.11429 17.5807 6.43629 17.9026 6.90763 18.0381C7.37896 18.1736 7.81896 18.0381 8.22429 17.631L15.4123 10.3989L16.4236 11.4165L9.23696 18.6499C8.83229 19.057 8.71363 19.5151 8.88229 20.0249C9.05029 20.5347 9.37229 20.8566 9.84363 20.9921C10.315 21.1276 10.755 20.9921 11.1603 20.585L18.3483 13.3529L19.3596 14.3705L12.1716 21.6025C11.767 22.0096 11.6483 22.4678 11.817 22.9775C11.985 23.4873 12.307 23.8093 12.7783 23.9448C13.2496 24.0803 13.6896 23.9448 14.095 23.5376L21.283 16.3056L22.2943 17.3231L15.107 24.5552C14.919 24.7443 14.8123 24.9355 14.7436 25.1286C15.5536 25.3601 16.395 25.7303 17.187 26.334L24.2183 19.2596L24.6463 19.6902L26.751 17.5726L26.8976 17.4251L27.061 17.2976L29.2623 15.5724L15.0083 1.23042C14.265 0.484547 13.3203 0.0767299 12.1736 0.00831322C11.0256 -0.058762 10.0136 0.279968 9.13563 1.02786L0.428957 9.78788C0.0242902 10.195 -0.0943766 10.6531 0.0742901 11.1629C0.241624 11.672 0.58029 12.0107 1.08496 12.1804Z" fill="#8C4600"/>
<path d="M59.0497 45.5412L40.735 27.1143L39.0383 29.3277L38.907 29.4988L38.7557 29.6497L36.6523 31.7659L54.697 49.9212C55.5737 50.8032 56.5703 51.0581 57.6837 50.6858C58.797 50.3136 59.5237 49.5824 59.8603 48.4958C60.1963 47.4092 59.9263 46.4252 59.0497 45.5412Z" fill="#8C4600"/>
<path d="M28.7551 45.5627C28.3838 42.8126 26.6804 40.9949 23.6418 40.1128L36.3984 27.278L54.8251 3.23893C55.2984 2.76269 55.2631 2.25493 54.7238 1.71163C53.9804 1.10124 53.3738 0.965749 52.9024 1.30448L29.1098 19.9447L16.3518 32.7782C15.4751 29.7229 13.6851 28.0246 10.9851 27.6858C8.2851 27.3471 6.02377 28.093 4.20177 29.9261C2.7171 31.4199 1.9751 33.186 1.9751 35.2231C1.9751 37.2601 2.75176 39.0598 4.3031 40.6226C5.78777 42.1164 7.57643 42.8294 9.66977 42.7623C11.7631 42.6952 13.4831 41.9809 14.8331 40.6226L28.1978 27.1761L29.2091 28.1936L15.8451 41.6408C14.4284 43.0662 13.6851 44.7645 13.6184 46.7332C13.5504 48.7018 14.1584 50.4002 15.4398 51.8255C13.0784 54.0658 11.9631 56.2055 12.0984 58.2426C12.1651 59.2601 12.6718 59.839 13.6164 59.9745C14.5611 60.11 15.1678 59.7028 15.4378 58.7524C15.7744 57.5987 16.0444 56.8508 16.2478 56.5121C16.4491 56.172 17.2944 55.3919 18.7791 54.1698C21.7491 55.2564 24.3471 54.6796 26.5758 52.4379C28.3998 50.6048 29.1264 48.3128 28.7551 45.5627ZM9.56843 39.0953C8.5571 39.0953 7.6951 38.7385 6.9871 38.0255C6.2791 37.3131 5.92377 36.4458 5.92377 35.4283C5.92377 34.4108 6.2951 33.5267 7.0371 32.7809C7.77843 32.035 8.6571 31.6607 9.66843 31.6607C10.6798 31.6607 11.5418 32.0175 12.2498 32.7306C12.9578 33.4429 13.3131 34.3102 13.3131 35.3277C13.3131 36.3452 12.9418 37.2293 12.1998 37.9752C11.4584 38.721 10.5818 39.0953 9.56843 39.0953ZM21.1104 50.7074C20.0991 50.7074 19.2371 50.3505 18.5291 49.6375C17.8211 48.9252 17.4658 48.0579 17.4658 47.0404C17.4658 46.0228 17.8371 45.1388 18.5791 44.3929C19.3204 43.647 20.1991 43.2728 21.2104 43.2728C22.2218 43.2728 23.0838 43.6296 23.7918 44.3426C24.4998 45.0549 24.8551 45.9222 24.8551 46.9398C24.8551 47.9573 24.4838 48.8413 23.7418 49.5872C22.9998 50.3331 22.1231 50.7074 21.1104 50.7074Z" fill="#8C4600"/>
</svg>
