<svg width="18" height="18" viewBox="0 0 18 18" fill="none" xmlns="http://www.w3.org/2000/svg">
<g clip-path="url(#clip0_161_189)">
<path d="M15.3004 0.900146H2.70039C1.71039 0.900146 0.900391 1.71015 0.900391 2.70015V15.3001C0.900391 16.291 1.71039 17.1001 2.70039 17.1001H15.3004C16.2904 17.1001 17.1004 16.291 17.1004 15.3001V2.70015C17.1004 1.71015 16.2904 0.900146 15.3004 0.900146ZM8.98599 13.9708C10.308 13.9706 11.5757 13.4453 12.5104 12.5104C13.4451 11.5756 13.9702 10.3077 13.9702 8.98575C13.9702 8.68155 13.9315 8.38815 13.8775 8.10015H15.3004V14.5945C15.3004 14.6763 15.2842 14.7573 15.2529 14.8328C15.2215 14.9083 15.1755 14.9769 15.1175 15.0346C15.0596 15.0923 14.9908 15.138 14.9152 15.169C14.8395 15.2001 14.7585 15.2159 14.6767 15.2155H3.32409C3.24231 15.2159 3.16127 15.2001 3.08561 15.169C3.00996 15.138 2.94118 15.0923 2.88323 15.0346C2.82528 14.9769 2.77929 14.9083 2.74792 14.8328C2.71654 14.7573 2.70039 14.6763 2.70039 14.5945V8.10015H4.09449C4.03959 8.38815 4.00089 8.68155 4.00089 8.98575C4.00113 10.3078 4.52642 11.5756 5.46125 12.5105C6.39609 13.4453 7.66393 13.9706 8.98599 13.9708V13.9708ZM5.87109 8.98575C5.87109 8.57669 5.95166 8.17164 6.1082 7.79372C6.26473 7.41581 6.49418 7.07242 6.78342 6.78318C7.07267 6.49393 7.41605 6.26449 7.79397 6.10795C8.17188 5.95141 8.57693 5.87085 8.98599 5.87085C9.39504 5.87085 9.80009 5.95141 10.178 6.10795C10.5559 6.26449 10.8993 6.49393 11.1886 6.78318C11.4778 7.07242 11.7072 7.41581 11.8638 7.79372C12.0203 8.17164 12.1009 8.57669 12.1009 8.98575C12.1009 9.81187 11.7727 10.6042 11.1886 11.1883C10.6044 11.7725 9.81211 12.1006 8.98599 12.1006C8.15987 12.1006 7.36758 11.7725 6.78342 11.1883C6.19927 10.6042 5.87109 9.81187 5.87109 8.98575V8.98575ZM14.6767 5.40015H13.2232C13.0582 5.39967 12.9 5.3339 12.7833 5.21721C12.6666 5.10051 12.6009 4.94238 12.6004 4.77735V3.32205C12.6004 2.97825 12.8794 2.70015 13.2223 2.70015H14.6758C15.0214 2.70015 15.3004 2.97825 15.3004 3.32205V4.77645C15.3004 5.11935 15.0214 5.40015 14.6767 5.40015Z" fill="white"/>
</g>
<defs>
<clipPath id="clip0_161_189">
<rect width="18" height="18" fill="white" transform="translate(0.000488281)"/>
</clipPath>
</defs>
</svg>
