<svg width="48" height="48" viewBox="0 0 48 48" fill="none" xmlns="http://www.w3.org/2000/svg">
<path d="M43.4102 41.4137L47.5865 45.59C48.1378 46.1413 48.1378 47.0352 47.5865 47.5865C47.0352 48.1378 46.1413 48.1378 45.59 47.5865L41.4137 43.4102C39.8961 44.5208 38.0246 45.1765 36 45.1765C30.932 45.1765 26.8235 41.068 26.8235 36C26.8235 30.932 30.932 26.8235 36 26.8235C41.068 26.8235 45.1765 30.932 45.1765 36C45.1765 38.0246 44.5208 39.8961 43.4102 41.4137ZM36 29.6471C32.4914 29.6471 29.6471 32.4914 29.6471 36C29.6471 39.5087 32.4914 42.353 36 42.353C39.5087 42.353 42.353 39.5087 42.353 36C42.353 32.4914 39.5087 29.6471 36 29.6471ZM4.2353 26.8235H15.5294C17.8685 26.8235 19.7647 28.7197 19.7647 31.0588V42.353C19.7647 44.6921 17.8685 46.5883 15.5294 46.5883H4.2353C1.89621 46.5883 0 44.6921 0 42.353V31.0588C0 28.7197 1.89621 26.8235 4.2353 26.8235ZM4.2353 29.6471C3.4556 29.6471 2.82353 30.2791 2.82353 31.0588V42.353C2.82353 43.1327 3.4556 43.7647 4.2353 43.7647H15.5294C16.3091 43.7647 16.9412 43.1327 16.9412 42.353V31.0588C16.9412 30.2791 16.3091 29.6471 15.5294 29.6471H4.2353ZM31.0588 0H42.353C44.6921 0 46.5883 1.89621 46.5883 4.2353V15.5294C46.5883 17.8685 44.6921 19.7647 42.353 19.7647H31.0588C28.7197 19.7647 26.8235 17.8685 26.8235 15.5294V4.2353C26.8235 1.89621 28.7197 0 31.0588 0ZM31.0588 2.82353C30.2791 2.82353 29.6471 3.4556 29.6471 4.2353V15.5294C29.6471 16.3091 30.2791 16.9412 31.0588 16.9412H42.353C43.1327 16.9412 43.7647 16.3091 43.7647 15.5294V4.2353C43.7647 3.4556 43.1327 2.82353 42.353 2.82353H31.0588ZM4.2353 0H15.5294C17.8685 0 19.7647 1.89621 19.7647 4.2353V15.5294C19.7647 17.8685 17.8685 19.7647 15.5294 19.7647H4.2353C1.89621 19.7647 0 17.8685 0 15.5294V4.2353C0 1.89621 1.89621 0 4.2353 0ZM4.2353 2.82353C3.4556 2.82353 2.82353 3.4556 2.82353 4.2353V15.5294C2.82353 16.3091 3.4556 16.9412 4.2353 16.9412H15.5294C16.3091 16.9412 16.9412 16.3091 16.9412 15.5294V4.2353C16.9412 3.4556 16.3091 2.82353 15.5294 2.82353H4.2353Z" fill="#8C4600"/>
</svg>
