<svg width="48" height="48" viewBox="0 0 48 48" fill="none" xmlns="http://www.w3.org/2000/svg">
<path fill-rule="evenodd" clip-rule="evenodd" d="M9.74722 45.1715H19.3671C19.3787 45.4442 19.4135 46.3152 19.3439 46.5264L9.74722 46.522L9.74722 45.1715ZM35.0016 44.8064C35.4718 44.7624 35.9247 44.692 36.3601 44.604C36.7142 44.5293 37.2367 44.3665 37.527 44.3269V46.1393L35.1932 46.1437L35.0016 44.8064ZM2.85597 43.931C3.16948 43.9838 3.68617 44.173 4.04032 44.2653C4.45832 44.3709 4.85891 44.4545 5.30013 44.5381L4.9576 46.1437L2.85597 46.1305V43.931ZM8.00554 46.5088L7.99393 46.6451L6.64123 46.6539L7.4424 42.6421C7.69204 42.7257 7.8604 42.9677 8.71963 43.1744L9.10861 43.2536C9.32922 43.3108 9.27116 43.3592 9.45114 43.8474L8.00554 43.8519L8.00554 46.5088ZM10.6297 42.1011C9.80527 41.8679 8.50482 42.2814 8.09843 40.7418C7.83718 39.7565 9.11441 38.9515 10.0723 39.1318C11.2857 39.3649 11.4773 40.4515 11.6863 41.1905C11.7908 41.5512 12.4178 43.6627 12.4178 43.8518L11.2683 43.8474L10.6297 42.1011ZM15.5064 43.843C15.4425 43.4779 15.4193 40.8254 15.4251 40.2887C15.4425 37.9661 18.7691 38.4984 18.7923 40.0644C18.804 40.6934 18.6124 41.0937 18.0899 41.3401C16.8417 41.9251 16.7372 41.428 16.7081 42.1143C16.7023 42.3782 16.6791 43.6803 16.5978 43.8034C16.4933 43.8738 16.6559 43.8079 16.4991 43.843L15.5064 43.843ZM13.6834 40.8122C13.6892 41.1773 13.7066 41.5424 13.6834 41.9119L13.1551 40.0996C13.3989 40.1215 13.6544 40.0996 13.6834 40.2535C13.7066 40.3503 13.6834 40.689 13.6834 40.8122ZM12.9055 35.881L14.4672 36.5497C17.9854 37.8781 22.4208 37.9001 25.9506 36.5673L27.4949 35.9734L27.7039 38.516C27.1698 38.5732 26.5312 38.7007 25.9855 38.7843C25.3933 38.8767 24.8128 38.9515 24.2148 39.0131C23.0711 39.1406 21.5616 39.2726 20.3947 39.2418C20.2902 39.145 20.2554 39.0043 20.1741 38.8899C20.0986 38.7755 20.0057 38.6655 19.9128 38.5688C18.8446 37.4778 16.8533 36.9544 15.2683 37.7814C14.4265 38.2169 14.4672 38.4456 14.0492 38.8679L12.6268 38.6875L12.9055 35.881ZM1.73549 41.8899C1.75871 38.7095 2.00836 35.5599 2.1593 32.3927C2.20575 31.4117 1.99094 31.4777 2.97209 31.073C3.87776 30.6991 5.81102 30.2988 6.98375 30.1756C6.94892 34.5833 6.5077 38.9559 5.56719 43.2052C5.24788 43.2228 3.82551 42.8005 3.5062 42.6905L2.11866 42.1407C1.82838 41.9999 1.81097 42.0263 1.73549 41.8899ZM34.6474 43.5043C34.5371 42.453 34.3107 41.3445 34.1656 40.2799C33.6953 36.7828 33.4457 33.664 33.4283 30.1053C34.6881 30.1888 37.7476 30.8927 38.2817 31.4029L38.2759 31.9836C38.2759 34.5613 38.4849 37.2315 38.723 39.8092L38.9494 42.2242C38.5372 42.4926 37.6141 42.8665 37.0103 43.0468C36.3311 43.2536 35.466 43.4559 34.6474 43.5043H34.6474ZM18.3627 43.8518L18.4324 42.7081C18.8968 42.453 19.2336 42.4486 19.8257 41.9031C20.116 41.6348 20.3134 41.3005 20.4179 40.9398L20.5398 40.5703C21.2887 40.5043 22.1828 40.5175 22.984 40.4559C24.1683 40.3679 28.6909 39.8224 29.5327 39.5057C29.5617 39.189 29.4688 38.6567 29.434 38.3136C29.2482 36.3341 29.1495 34.447 29.0392 32.4675C28.9986 31.7329 28.8709 30.8399 28.8941 30.1229L31.6808 30.3604C31.7388 31.0466 31.7098 31.8076 31.733 32.5027C31.8027 34.5306 31.9595 36.6376 32.2033 38.6435C32.5226 41.2433 32.958 43.8078 33.3528 46.3856C32.9348 46.434 31.5995 46.4076 31.0074 46.4164C30.5777 46.4252 30.8738 46.522 30.4268 46.5264C29.3934 46.5396 28.3542 46.5352 27.3266 46.5396C25.254 46.5528 23.1814 46.5659 21.1146 46.5747L21.0914 43.8518L18.3627 43.8518ZM11.2625 29.8677C11.3844 29.8061 11.3844 29.8193 11.5528 29.8193C11.5586 29.9601 11.5644 30.0217 11.4947 30.1317C11.547 30.6463 11.4134 31.5657 11.3844 32.1288C11.3322 33.0393 11.1406 37.3986 10.9374 37.9617C9.68336 37.5438 8.92863 37.9265 8.21454 38.0981C8.34227 36.7784 8.51063 35.4807 8.5919 34.1434L8.74866 30.0569L11.2625 29.8677ZM13.248 29.9117L13.2712 29.6346C13.3873 29.617 13.5673 29.5994 13.7241 29.5994C14.3278 29.6346 15.0884 29.507 15.6689 29.5334C16.1102 29.5554 17.0158 29.5422 17.5093 29.463C17.579 28.8912 17.5209 28.0774 17.5209 27.4791C17.5209 26.8721 17.4338 26.2606 17.4106 25.6228C17.8112 25.658 18.2814 25.7767 18.7459 25.8251C19.2336 25.8823 19.7386 25.9087 20.2437 25.9087C21.6313 25.9087 21.8751 25.7855 23.0478 25.6184C23.0885 26.287 22.9666 26.8545 22.9666 27.4791C22.9666 28.1082 22.9666 28.7372 22.9666 29.3662L27.1002 29.5202L27.3904 34.3854C27.2279 34.469 27.0943 34.5658 26.9144 34.6537C26.7576 34.7329 26.6009 34.8121 26.4383 34.8869C26.1016 35.0408 25.7707 35.164 25.4165 35.3048C21.6777 36.7872 16.3946 36.4969 13.2538 34.3766C13.0274 34.2226 13.01 34.2358 13.0274 33.9235C13.0796 33.1669 13.2828 30.1976 13.248 29.9117L13.248 29.9117ZM13.6776 24.1008C13.5963 24.2019 13.6834 24.1228 13.5673 24.2019L11.5353 25.3852C11.1696 25.6404 11.2625 25.5744 11.1348 25.1433C10.9896 24.6286 10.7864 24.0876 10.7574 23.5289C10.7342 23.045 10.9258 22.3148 11.2509 21.9981C11.4076 22.1169 11.6515 22.46 11.785 22.6007C11.9766 22.8031 12.1565 22.957 12.3539 23.1374C12.6384 23.4013 13.3293 23.938 13.6776 24.1008ZM21.5152 5.81888C22.2873 5.7617 23.0769 5.86727 23.7097 6.08282C24.447 6.32476 24.7141 6.50951 25.0624 7.03298C25.701 8.01394 26.0377 8.85852 26.9666 9.50076C27.5298 9.88787 27.8491 9.99344 28.2729 10.4861C28.6038 10.8688 28.8941 11.3967 28.8941 11.9466C28.8883 13.2486 28.8883 14.5551 28.8883 15.8572C28.8883 18.3646 29.1495 20.1241 26.9086 22.2048C23.8722 25.0289 18.1653 25.4952 14.2582 22.7767C13.7763 22.438 12.0578 20.8104 12.3423 20.4101C13.3177 19.0332 14.1943 18.0655 14.6704 16.3235C15.2625 14.1592 15.2045 11.5199 16.0405 9.50516C16.4178 8.59019 17.1203 7.70161 18.0202 7.09017C18.1363 7.01098 18.2466 6.91861 18.3801 6.84383C18.5021 6.77784 18.6298 6.70306 18.7517 6.64148C19.5645 6.19719 20.4353 5.90246 21.5152 5.81888H21.5152ZM30.6474 13.3806C31.4021 13.6357 32.0988 14.2384 32.0988 15.1094C32.0988 15.9408 31.3963 16.6534 30.63 16.8469L30.6474 13.3806ZM9.01571 23.3617C8.53385 22.8339 7.98812 21.8573 7.66301 21.1843C6.37417 18.5405 5.82263 15.6724 6.11872 12.7999C6.54253 8.76175 8.7951 4.37604 13.6312 2.35255C14.3627 2.04902 15.7676 1.52995 16.6965 1.43757C19.2858 1.17804 21.8983 1.36719 24.1219 2.04462C25.1321 2.35255 26.1248 2.80123 26.8041 3.25432C28.4645 4.34965 29.5037 5.57694 29.9217 7.3365C30.1075 8.11951 30.2178 9.53596 30.1887 10.3542L30.0088 10.1342C29.9565 10.055 29.9043 9.98025 29.852 9.91866C29.016 8.82333 28.3193 8.80574 27.8433 8.27787C26.4906 6.77344 26.9028 5.57254 24.0638 4.76754C22.2699 4.25727 20.0289 4.51681 18.5659 5.16345C17.3409 5.70451 16.2901 6.41713 15.5238 7.28812C13.2886 9.84388 13.8402 13.0067 12.9345 16.1651C12.0985 19.0728 9.12602 20.872 9.01571 23.3617ZM1.07946 43.346V46.8431C1.07365 47.2786 1.12591 47.5689 1.12591 48L20.1973 47.9252C21.1146 47.9252 21.939 47.8856 22.9027 47.8856C26.6009 47.8856 30.1539 47.8504 33.8637 47.8504C34.8042 47.8504 35.5995 47.8109 36.5633 47.8109C36.9523 47.8109 39.1294 47.89 39.2745 47.7801C39.379 47.7009 39.2687 46.9839 39.2687 46.8079V43.6407C39.826 43.5439 39.8086 43.1568 40.842 43.1568C40.842 43.0029 40.7839 42.651 40.7549 42.5146C40.7259 42.321 40.6969 42.0219 40.6969 41.8415C40.424 41.3533 40.0466 34.0731 40.0234 32.6522C40.0176 32.2343 40.0931 31.4117 40.035 31.051C39.9886 30.8047 39.3093 30.3252 39.0481 30.18C36.3136 28.6624 28.8128 28.2533 24.7431 28.0906C24.656 27.8882 24.6908 25.5084 24.7141 25.1257C25.6894 24.9014 27.5472 23.7356 28.2555 23.0406C29.7011 21.633 30.2816 20.5552 30.5951 18.7077C31.1525 18.5493 31.4718 18.5185 31.9885 18.3074C34.2469 17.388 35.1061 15.0434 33.8172 13.319C33.5908 13.0155 33.2599 12.69 32.9928 12.492C32.8535 12.3908 32.6445 12.2457 32.4645 12.1489C32.302 12.0609 32.1046 11.9817 31.9014 11.8718C31.8898 11.5726 31.9537 11.1943 31.9537 10.8644C31.9537 8.82773 31.8318 6.52271 30.5894 4.74115C29.7301 3.50066 29.3411 3.31151 28.2207 2.44052C27.524 1.89946 26.1074 1.23522 24.9347 0.870116C23.5994 0.456618 22.1654 0.175089 20.5863 0.0695147C17.0972 -0.172425 14.7285 0.188285 11.9128 1.60913C10.531 2.30416 8.79515 3.57544 7.87786 4.65757C7.51792 5.08427 7.20441 5.45377 6.85027 5.92885C4.72542 8.84093 4.02875 12.8087 4.41192 16.1915C4.68478 18.6153 5.47434 20.7224 6.61805 22.7195C7.25086 23.828 8.62679 25.5876 9.74727 26.4894C10.142 26.8105 10.4555 27.312 10.8561 27.6375C10.9781 27.5099 11.5006 27.1888 11.7096 27.0436C12.3772 26.5729 13.0448 26.1199 13.788 25.7108C13.9854 25.6052 14.2118 25.4644 14.4092 25.3632C15.5935 24.7606 15.1174 24.9761 15.7793 25.1301L15.7503 28.2049C12.1972 28.3545 2.86763 28.592 0.760199 30.7739C0.348001 31.2006 0.452502 31.6977 0.423474 32.2827C0.394446 32.8414 0.365418 33.3956 0.330585 33.9587C0.255112 35.3136 -0.139669 41.362 0.0519158 42.3386C0.150611 42.8313 0.690532 42.9677 1.12015 43.2228L1.07946 43.346Z" fill="#8C4600"/>
<path fill-rule="evenodd" clip-rule="evenodd" d="M45.1264 13.6006L45.109 13.7414L40.6503 13.737V15.0346L45.0045 15.0478C45.0103 15.039 45.0277 15.0566 45.0393 15.061L45.0219 15.4041L40.6503 15.4086L40.6445 16.715C41.2657 16.6931 44.6503 16.6578 45.0567 16.7326L45.0451 17.2253H40.6503L40.6619 18.5318L45.0974 18.5362L45.1089 19.0465L40.6328 19.0509V20.3662L45.1554 20.3706L45.1728 20.7137L44.9231 20.7445C44.8303 20.7445 44.7258 20.7445 44.6271 20.7445C43.5008 20.7401 41.5849 20.7753 40.6502 20.7401V22.0378C41.5965 21.9938 43.5762 22.0333 44.7258 22.029C45.0509 22.029 45.138 21.9938 45.2192 22.0817L45.225 22.5392H40.656L40.6328 23.8589H45.2657L45.2889 24.3648L40.6502 24.3911V25.6844H45.3354C45.3238 25.8164 45.376 26.0231 45.3295 26.1947H40.6444L40.6618 27.5056C41.4282 27.5188 44.9696 27.4352 45.3876 27.5319L45.3934 27.9103C44.5748 27.9894 43.0189 27.9191 42.119 27.9191C41.6314 27.9191 40.9927 27.8443 40.6502 28.0774C40.3309 28.293 40.1742 28.6537 40.5167 28.988C40.9811 29.4411 41.6952 29.0716 43.2627 29.4411C44.4413 29.7226 44.6561 29.9514 45.463 30.3033L45.7069 37.7198L45.8056 41.8548C45.8056 42.0615 45.8578 42.0923 45.8578 42.2991C45.8636 42.8621 45.9739 43.0205 46.5661 43.1789C46.8796 43.2624 47.5182 43.1349 47.6459 42.651C47.7504 42.2639 47.7214 39.3078 47.7214 38.9471C47.7214 37.7154 47.8201 36.4617 47.7678 35.186C47.8317 29.3531 47.913 23.5158 47.9884 17.6828C48.0058 16.2575 48.029 14.7971 47.8433 13.3894C47.7678 12.8044 47.6749 12.0082 47.2976 11.5991C46.8273 11.0976 45.8229 11.212 44.8766 11.2868C43.6516 11.3835 42.4034 11.5947 41.2249 11.8278C39.9999 12.0654 40.3192 12.8748 40.8185 13.0815C41.1552 13.2223 41.7474 13.1651 42.1712 13.1607C43.164 13.1607 44.1625 13.1563 45.1553 13.1519L45.1264 13.6006Z" fill="#8C4600"/>
<path fill-rule="evenodd" clip-rule="evenodd" d="M15.8779 40.7155L17.5325 41.0982C17.6254 40.9046 18.0144 40.0248 18.0144 39.8577L16.3598 39.4794L15.8779 40.7155Z" fill="#8C4600"/>
<path fill-rule="evenodd" clip-rule="evenodd" d="M8.76025 40.2227L9.24792 41.4412L10.9083 41.0673L10.4207 39.8356C9.9504 39.9147 9.20148 40.0995 8.76025 40.2227Z" fill="#8C4600"/>
<path fill-rule="evenodd" clip-rule="evenodd" d="M40.6619 27.5056L40.6445 26.1947H45.3296C45.376 26.0231 45.3238 25.8164 45.3354 25.6844H40.6503V24.3911L45.289 24.3648C44.6968 24.3648 40.8709 24.3164 40.6561 24.3911C40.5574 24.4483 40.5865 25.4953 40.5981 25.5832C40.6155 25.7636 40.6561 25.7152 41.1844 25.7152H45.2658C45.2774 25.812 45.2832 26.0099 45.3006 26.1463C44.6387 26.1463 40.929 26.0715 40.6213 26.1903L40.598 27.3692C40.6154 27.5364 40.5865 27.4528 40.6619 27.5056H40.6619Z" fill="#8C4600"/>
<path fill-rule="evenodd" clip-rule="evenodd" d="M40.662 18.5317L40.6504 17.2252H45.0452L45.0568 16.7325C44.6504 16.6578 41.2658 16.693 40.6446 16.7149L40.6504 15.4084C40.6214 15.4436 40.6214 15.4172 40.604 15.4876L40.5982 16.5302C40.5982 16.8469 40.6736 16.7457 41.8754 16.7457C42.9146 16.7457 43.9538 16.7457 44.993 16.7457L45.0336 17.1768C44.4124 17.1768 40.9116 17.1152 40.6214 17.2164L40.5981 18.3909C40.6098 18.5537 40.5807 18.4701 40.662 18.5317L40.662 18.5317Z" fill="#8C4600"/>
<path fill-rule="evenodd" clip-rule="evenodd" d="M45.2192 22.0817C45.138 21.9937 45.0509 22.0289 44.7258 22.0289C43.5762 22.0333 41.5965 21.9937 40.6502 22.0377V20.74C41.5849 20.7752 43.5008 20.74 44.6271 20.7444C44.7258 20.7444 44.8302 20.7444 44.9231 20.7444L45.1728 20.7136H41.0392C40.5167 20.7092 40.6038 20.5861 40.6038 21.4043C40.6038 21.8705 40.5051 22.0421 40.7431 22.0641C40.8128 22.0685 41.0044 22.0597 41.0856 22.0597C41.9275 22.0597 44.7722 22.0201 45.2192 22.0817V22.0817Z" fill="#8C4600"/>
<path fill-rule="evenodd" clip-rule="evenodd" d="M45.0395 15.061C45.0279 15.0566 45.0105 15.039 45.0047 15.0478L40.6505 15.0346V13.7369L45.1092 13.7414L45.1266 13.6006L45.0221 13.7106H41.0395C40.4647 13.7062 40.6041 13.583 40.5983 14.8543C40.5983 15.1138 40.6273 15.0654 40.9872 15.061L45.0395 15.061Z" fill="#8C4600"/>
<path fill-rule="evenodd" clip-rule="evenodd" d="M11.4949 30.1316C11.5646 30.0217 11.5588 29.9601 11.553 29.8193C11.3846 29.8193 11.3846 29.8061 11.2627 29.8677L11.5181 29.8457L11.4949 30.1316Z" fill="#8C4600"/>
<path fill-rule="evenodd" clip-rule="evenodd" d="M13.248 29.9117L13.3293 29.6434L13.7241 29.5994C13.5674 29.5994 13.3874 29.617 13.2713 29.6345L13.248 29.9117Z" fill="#8C4600"/>
</svg>
