<svg width="48" height="46" viewBox="0 0 48 46" fill="none" xmlns="http://www.w3.org/2000/svg">
<path d="M37 24C34.8244 24 32.6977 24.6451 30.8887 25.8538C29.0798 27.0625 27.6699 28.7805 26.8373 30.7905C26.0048 32.8005 25.7869 35.0122 26.2114 37.146C26.6358 39.2798 27.6835 41.2398 29.2218 42.7782C30.7602 44.3166 32.7202 45.3642 34.854 45.7886C36.9878 46.2131 39.1995 45.9952 41.2095 45.1627C43.2195 44.3301 44.9375 42.9202 46.1462 41.1113C47.3549 39.3023 48 37.1756 48 35C48 32.0826 46.8411 29.2847 44.7782 27.2218C42.7153 25.1589 39.9174 24 37 24ZM37 44C35.22 44 33.4799 43.4722 31.9999 42.4832C30.5198 41.4943 29.3663 40.0887 28.6851 38.4441C28.0039 36.7996 27.8257 34.99 28.1729 33.2442C28.5202 31.4984 29.3774 29.8947 30.636 28.636C31.8947 27.3774 33.4984 26.5202 35.2442 26.1729C36.99 25.8257 38.7996 26.0039 40.4442 26.6851C42.0887 27.3663 43.4943 28.5198 44.4832 29.9999C45.4722 31.4799 46 33.22 46 35C46 37.3869 45.0518 39.6761 43.364 41.364C41.6761 43.0518 39.387 44 37 44Z" fill="#8C4600"/>
<path d="M40.1799 31.5199L35.3299 36.3599L33.8199 34.8499C33.727 34.7562 33.6164 34.6818 33.4945 34.631C33.3726 34.5803 33.2419 34.5541 33.1099 34.5541C32.9779 34.5541 32.8472 34.5803 32.7253 34.631C32.6035 34.6818 32.4929 34.7562 32.3999 34.8499C32.2137 35.0373 32.1091 35.2907 32.1091 35.5549C32.1091 35.8191 32.2137 36.0726 32.3999 36.2599L34.6299 38.4799C34.8173 38.6662 35.0707 38.7707 35.3349 38.7707C35.5991 38.7707 35.8526 38.6662 36.0399 38.4799L41.5999 32.9299C41.7869 32.7416 41.8914 32.4868 41.8905 32.2214C41.8895 31.956 41.7832 31.7019 41.5949 31.5149C41.4066 31.3279 41.1518 31.2234 40.8864 31.2244C40.621 31.2253 40.3669 31.3316 40.1799 31.5199Z" fill="#8C4600"/>
<path d="M23.33 40H4C3.46957 40 2.96086 39.7893 2.58579 39.4142C2.21071 39.0391 2 38.5304 2 38V16H31C31.2652 16 31.5196 15.8946 31.7071 15.7071C31.8946 15.5196 32 15.2652 32 15C32 14.7348 31.8946 14.4804 31.7071 14.2929C31.5196 14.1054 31.2652 14 31 14H2V8C2 7.46957 2.21071 6.96086 2.58579 6.58579C2.96086 6.21071 3.46957 6 4 6H8.5V7C8.5 7.79565 8.81607 8.55871 9.37868 9.12132C9.94129 9.68393 10.7044 10 11.5 10H12.5C13.2956 10 14.0587 9.68393 14.6213 9.12132C15.1839 8.55871 15.5 7.79565 15.5 7V6H28.5V7C28.5 7.79565 28.8161 8.55871 29.3787 9.12132C29.9413 9.68393 30.7044 10 31.5 10H32.5C33.2957 10 34.0587 9.68393 34.6213 9.12132C35.1839 8.55871 35.5 7.79565 35.5 7V6H40C40.5304 6 41.0391 6.21071 41.4142 6.58579C41.7893 6.96086 42 7.46957 42 8V14H37.52C37.2548 14 37.0004 14.1054 36.8129 14.2929C36.6254 14.4804 36.52 14.7348 36.52 15C36.52 15.2652 36.6254 15.5196 36.8129 15.7071C37.0004 15.8946 37.2548 16 37.52 16H42V21.94C42 22.2052 42.1054 22.4596 42.2929 22.6471C42.4804 22.8346 42.7348 22.94 43 22.94C43.2652 22.94 43.5196 22.8346 43.7071 22.6471C43.8946 22.4596 44 22.2052 44 21.94V8C44 6.93913 43.5786 5.92172 42.8284 5.17157C42.0783 4.42143 41.0609 4 40 4H35.5V3C35.5 2.20435 35.1839 1.44129 34.6213 0.87868C34.0587 0.316071 33.2957 0 32.5 0H31.5C30.7044 0 29.9413 0.316071 29.3787 0.87868C28.8161 1.44129 28.5 2.20435 28.5 3V4H15.5V3C15.5 2.20435 15.1839 1.44129 14.6213 0.87868C14.0587 0.316071 13.2956 0 12.5 0H11.5C10.7044 0 9.94129 0.316071 9.37868 0.87868C8.81607 1.44129 8.5 2.20435 8.5 3V4H4C2.93913 4 1.92172 4.42143 1.17157 5.17157C0.421427 5.92172 0 6.93913 0 8V38C0 39.0609 0.421427 40.0783 1.17157 40.8284C1.92172 41.5786 2.93913 42 4 42H23.33C23.5952 42 23.8496 41.8946 24.0371 41.7071C24.2246 41.5196 24.33 41.2652 24.33 41C24.33 40.7348 24.2246 40.4804 24.0371 40.2929C23.8496 40.1054 23.5952 40 23.33 40ZM30.5 3C30.5 2.73478 30.6054 2.48043 30.7929 2.29289C30.9804 2.10536 31.2348 2 31.5 2H32.5C32.7652 2 33.0196 2.10536 33.2071 2.29289C33.3946 2.48043 33.5 2.73478 33.5 3V7C33.5 7.26522 33.3946 7.51957 33.2071 7.70711C33.0196 7.89464 32.7652 8 32.5 8H31.5C31.2348 8 30.9804 7.89464 30.7929 7.70711C30.6054 7.51957 30.5 7.26522 30.5 7V3ZM10.5 3C10.5 2.73478 10.6054 2.48043 10.7929 2.29289C10.9804 2.10536 11.2348 2 11.5 2H12.5C12.7652 2 13.0196 2.10536 13.2071 2.29289C13.3946 2.48043 13.5 2.73478 13.5 3V7C13.5 7.26522 13.3946 7.51957 13.2071 7.70711C13.0196 7.89464 12.7652 8 12.5 8H11.5C11.2348 8 10.9804 7.89464 10.7929 7.70711C10.6054 7.51957 10.5 7.26522 10.5 7V3Z" fill="#8C4600"/>
<path d="M22 24C23.1046 24 24 23.1046 24 22C24 20.8954 23.1046 20 22 20C20.8954 20 20 20.8954 20 22C20 23.1046 20.8954 24 22 24Z" fill="#8C4600"/>
</svg>
