<svg width="54" height="32" viewBox="0 0 54 32" fill="none" xmlns="http://www.w3.org/2000/svg">
<path fill-rule="evenodd" clip-rule="evenodd" d="M53.25 15.9999C53.25 16.4475 53.0525 16.8767 52.7008 17.1932C52.3492 17.5097 51.8723 17.6874 51.375 17.6874L7.15124 17.6874L18.9525 28.3052C19.3046 28.6221 19.5024 29.0518 19.5024 29.4999C19.5024 29.9481 19.3046 30.3778 18.9525 30.6947C18.6004 31.0116 18.1229 31.1896 17.625 31.1896C17.1271 31.1896 16.6496 31.0116 16.2975 30.6947L1.29749 17.1947C1.12288 17.0379 0.984341 16.8517 0.889816 16.6467C0.795292 16.4417 0.746635 16.2219 0.746635 15.9999C0.746635 15.778 0.795292 15.5582 0.889816 15.3532C0.984341 15.1482 1.12288 14.9619 1.29749 14.8052L16.2975 1.30519C16.6496 0.988323 17.1271 0.810308 17.625 0.810308C18.1229 0.81031 18.6004 0.988323 18.9525 1.30519C19.3046 1.62206 19.5024 2.05182 19.5024 2.49994C19.5024 2.94806 19.3046 3.37782 18.9525 3.69469L7.15124 14.3124L51.375 14.3124C51.8723 14.3124 52.3492 14.4902 52.7008 14.8067C53.0525 15.1232 53.25 15.5524 53.25 15.9999Z" fill="#13181E"/>
</svg>
