<svg width="27" height="24" viewBox="0 0 27 24" fill="none" xmlns="http://www.w3.org/2000/svg">
<path d="M13.0166 13C14.6735 13 16.0166 11.6569 16.0166 10C16.0166 8.34315 14.6735 7 13.0166 7C11.3597 7 10.0166 8.34315 10.0166 10C10.0166 11.6569 11.3597 13 13.0166 13Z" stroke="#7C7C7C" stroke-opacity="0.6" stroke-width="2" stroke-linecap="round" stroke-linejoin="round"/>
<path d="M13.0166 2C10.8949 2 8.86004 2.84285 7.35975 4.34315C5.85946 5.84344 5.0166 7.87827 5.0166 10C5.0166 11.892 5.4186 13.13 6.5166 14.5L13.0166 22L19.5166 14.5C20.6146 13.13 21.0166 11.892 21.0166 10C21.0166 7.87827 20.1737 5.84344 18.6735 4.34315C17.1732 2.84285 15.1383 2 13.0166 2V2Z" stroke="#7C7C7C" stroke-opacity="0.6" stroke-width="2" stroke-linecap="round" stroke-linejoin="round"/>
</svg>
