<svg width="50" height="50" viewBox="0 0 50 50" fill="none" xmlns="http://www.w3.org/2000/svg">
<path d="M0.904131 10.1504C1.32635 10.2912 1.70524 10.1923 2.04302 9.85301L8.03302 3.8263L8.79413 4.59208L2.80413 10.6182C2.46691 10.9575 2.36802 11.3393 2.50857 11.7641C2.65024 12.1889 2.91691 12.4572 3.30969 12.5701C3.70246 12.683 4.06913 12.5701 4.40691 12.2308L10.3969 6.20412L11.2397 7.05206L5.2508 13.0788C4.91358 13.4181 4.81469 13.8009 4.95524 14.2258C5.09524 14.6506 5.36358 14.9189 5.75635 15.0318C6.14913 15.1447 6.5158 15.0318 6.85358 14.6925L12.8436 8.66578L13.6864 9.51372L7.69746 15.5415C7.36024 15.8808 7.26135 16.2626 7.40191 16.6874C7.54191 17.1122 7.81024 17.3805 8.20302 17.4934C8.5958 17.6063 8.96246 17.4934 9.30024 17.1541L15.2902 11.1274L16.133 11.9754L10.143 18.0021C9.8058 18.3414 9.70691 18.7231 9.84746 19.148C9.98746 19.5728 10.2558 19.8411 10.6486 19.954C11.0414 20.0669 11.408 19.954 11.7458 19.6147L17.7358 13.588L18.5786 14.4359L12.5891 20.4626C12.4325 20.6203 12.3436 20.7796 12.2864 20.9405C12.9614 21.1334 13.6625 21.4419 14.3225 21.945L20.1819 16.0496L20.5386 16.4085L22.2925 14.6439L22.4147 14.5209L22.5508 14.4147L24.3852 12.977L12.5069 1.02535C11.8875 0.403789 11.1002 0.0639416 10.1447 0.00692768C9.18802 -0.0489683 8.34469 0.233306 7.61302 0.856547L0.357464 8.15656C0.0202418 8.49585 -0.0786471 8.87762 0.0619084 9.30243C0.201353 9.72668 0.483575 10.009 0.904131 10.1504Z" fill="#8C4600"/>
<path d="M49.2079 37.951L33.9457 22.5952L32.5318 24.4398L32.4223 24.5823L32.2962 24.7081L30.5435 26.4716L45.5807 41.601C46.3112 42.336 47.1418 42.5484 48.0696 42.2382C48.9973 41.928 49.6029 41.3187 49.8835 40.4132C50.1635 39.5077 49.9385 38.6877 49.2079 37.951Z" fill="#8C4600"/>
<path d="M23.9624 37.9688C23.653 35.6771 22.2335 34.1623 19.7013 33.4273L30.3319 22.7316L45.6874 2.69902C46.0819 2.30216 46.0524 1.87903 45.603 1.42627C44.9835 0.917619 44.478 0.804709 44.0852 1.08698L24.258 16.6205L13.6263 27.3151C12.8958 24.769 11.4041 23.3537 9.15409 23.0714C6.90409 22.7892 5.01964 23.4107 3.50131 24.9384C2.26409 26.1832 1.64575 27.6549 1.64575 29.3525C1.64575 31.05 2.29297 32.5497 3.58575 33.8521C4.82297 35.0969 6.31353 35.6911 8.05798 35.6352C9.80242 35.5793 11.2358 34.984 12.3608 33.8521L23.498 22.6466L24.3408 23.4946L13.2041 34.7006C12.0235 35.8884 11.4041 37.3037 11.3485 38.9442C11.2919 40.5848 11.7985 42.0001 12.8663 43.1879C10.8985 45.0548 9.96909 46.8379 10.0819 48.5354C10.1374 49.3834 10.5596 49.8657 11.3469 49.9786C12.1341 50.0916 12.6396 49.7523 12.8646 48.9602C13.1452 47.9988 13.3702 47.3756 13.5396 47.0933C13.7074 46.8099 14.4119 46.1598 15.6491 45.1414C18.1241 46.0469 20.2891 45.5662 22.1463 43.6982C23.6663 42.1705 24.2719 40.2606 23.9624 37.9688ZM7.97353 32.5793C7.13075 32.5793 6.41242 32.282 5.82242 31.6878C5.23242 31.0942 4.93631 30.3715 4.93631 29.5235C4.93631 28.6756 5.24575 27.9389 5.86409 27.3173C6.48186 26.6957 7.21409 26.3838 8.05687 26.3838C8.89964 26.3838 9.61798 26.6812 10.208 27.2754C10.798 27.869 11.0941 28.5917 11.0941 29.4397C11.0941 30.2876 10.7846 31.0243 10.1663 31.6459C9.54853 32.2674 8.81798 32.5793 7.97353 32.5793ZM17.5919 42.2561C16.7491 42.2561 16.0308 41.9587 15.4408 41.3645C14.8508 40.7709 14.5546 40.0482 14.5546 39.2002C14.5546 38.3523 14.8641 37.6156 15.4824 36.994C16.1002 36.3725 16.8324 36.0606 17.6752 36.0606C18.518 36.0606 19.2363 36.3579 19.8263 36.9521C20.4163 37.5457 20.7124 38.2684 20.7124 39.1164C20.7124 39.9643 20.403 40.701 19.7846 41.3226C19.1663 41.9442 18.4358 42.2561 17.5919 42.2561Z" fill="#8C4600"/>
</svg>
