<svg width="70" height="70" viewBox="0 0 70 70" fill="none" xmlns="http://www.w3.org/2000/svg">
<path d="M23.061 32.1806C21.6226 32.1855 20.2097 32.5605 18.9582 33.2695C20.7202 28.7088 23.6425 24.6873 27.436 21.6028C27.653 21.4241 27.8327 21.2043 27.9648 20.9562C28.097 20.708 28.1789 20.4362 28.206 20.1563C28.2331 19.8764 28.2048 19.594 28.1227 19.325C28.0406 19.0561 27.9064 18.806 27.7276 18.5889C27.5489 18.3719 27.3291 18.1922 27.081 18.0601C26.8328 17.9279 26.561 17.846 26.2811 17.8189C26.0012 17.7918 25.7188 17.8201 25.4498 17.9022C25.1809 17.9843 24.9308 18.1185 24.7137 18.2973C16.936 24.6167 13.4749 33.3667 13.4749 38.7917C13.4883 40.7099 14.0599 42.5827 15.1199 44.1814C16.18 45.7801 17.6826 47.0356 19.4443 47.7945C20.5844 48.3468 21.833 48.639 23.0999 48.6501C24.2149 48.7043 25.3294 48.5314 26.3756 48.1421C27.4219 47.7527 28.3782 47.1549 29.1866 46.3849C29.9949 45.6149 30.6384 44.6887 31.0781 43.6626C31.5178 42.6365 31.7446 41.5317 31.7446 40.4153C31.7446 39.299 31.5178 38.1942 31.0781 37.1681C30.6384 36.1419 29.9949 35.2158 29.1866 34.4458C28.3782 33.6758 27.4219 33.078 26.3756 32.6886C25.3294 32.2992 24.2149 32.1264 23.0999 32.1806H23.061Z" fill="#8C4600"/>
<path d="M44.7223 32.1805C43.2837 32.1836 41.8704 32.5588 40.6196 33.2694C42.3808 28.7135 45.2955 24.6933 49.0779 21.6028C49.3146 21.4321 49.514 21.2148 49.6636 20.9643C49.8132 20.7137 49.91 20.4352 49.9479 20.1458C49.9859 19.8564 49.9642 19.5624 49.8843 19.2817C49.8043 19.001 49.6678 18.7397 49.4831 18.5138C49.2983 18.2878 49.0693 18.1021 48.8101 17.968C48.5509 17.8339 48.267 17.7542 47.9759 17.7339C47.6847 17.7136 47.3925 17.7532 47.1172 17.85C46.842 17.9469 46.5894 18.0991 46.3751 18.2972C38.5973 24.6167 35.1362 33.3667 35.1362 38.7917C35.1454 40.6881 35.7004 42.5418 36.7348 44.1314C37.7692 45.7209 39.2393 46.979 40.9696 47.7555C42.1386 48.324 43.4224 48.6167 44.7223 48.6111C45.8374 48.6653 46.9519 48.4925 47.9981 48.1031C49.0444 47.7137 50.0007 47.1159 50.809 46.3459C51.6174 45.5759 52.2609 44.6498 52.7006 43.6236C53.1403 42.5975 53.3671 41.4927 53.3671 40.3764C53.3671 39.26 53.1403 38.1552 52.7006 37.1291C52.2609 36.103 51.6174 35.1768 50.809 34.4068C50.0007 33.6368 49.0444 33.039 47.9981 32.6497C46.9519 32.2603 45.8374 32.0875 44.7223 32.1417V32.1805Z" fill="#8C4600"/>
</svg>
