<svg width="54" height="32" viewBox="0 0 54 32" fill="none" xmlns="http://www.w3.org/2000/svg">
<path fill-rule="evenodd" clip-rule="evenodd" d="M0.75 16.0001C0.75 15.5525 0.947544 15.1233 1.29917 14.8068C1.65081 14.4903 2.12772 14.3126 2.625 14.3126H46.8488L35.0475 3.69481C34.6954 3.37794 34.4976 2.94817 34.4976 2.50006C34.4976 2.05194 34.6954 1.62217 35.0475 1.30531C35.3996 0.988439 35.8771 0.810425 36.375 0.810425C36.8729 0.810425 37.3504 0.988439 37.7025 1.30531L52.7025 14.8053C52.8771 14.9621 53.0157 15.1483 53.1102 15.3533C53.2047 15.5583 53.2534 15.7781 53.2534 16.0001C53.2534 16.222 53.2047 16.4418 53.1102 16.6468C53.0157 16.8518 52.8771 17.0381 52.7025 17.1948L37.7025 30.6948C37.3504 31.0117 36.8729 31.1897 36.375 31.1897C35.8771 31.1897 35.3996 31.0117 35.0475 30.6948C34.6954 30.3779 34.4976 29.9482 34.4976 29.5001C34.4976 29.0519 34.6954 28.6222 35.0475 28.3053L46.8488 17.6876H2.625C2.12772 17.6876 1.65081 17.5098 1.29917 17.1933C0.947544 16.8768 0.75 16.4476 0.75 16.0001Z" fill="#13181E"/>
</svg>
