<svg width="18" height="17" viewBox="0 0 18 17" fill="none" xmlns="http://www.w3.org/2000/svg">
<g clip-path="url(#clip0_161_193)">
<path fill-rule="evenodd" clip-rule="evenodd" d="M17.561 2.0862C16.9401 2.4234 16.2792 2.64491 15.6015 2.74293C16.3061 2.22671 16.8487 1.40809 17.102 0.433691C16.4424 0.911727 15.7134 1.25842 14.933 1.44475C14.6185 1.03049 14.2343 0.699162 13.8054 0.472139C13.3764 0.245116 12.9122 0.127442 12.4425 0.126709C10.559 0.126709 9.03026 1.99762 9.03026 4.3038C9.03026 4.63064 9.05983 4.94984 9.11769 5.25529C6.2814 5.08118 3.76783 3.41951 2.08354 0.890345C1.78911 1.50889 1.62069 2.22671 1.62069 2.99187C1.62069 4.43973 2.22497 5.71958 3.1404 6.46794C2.59639 6.44676 2.06497 6.26797 1.5924 5.94714V5.99907C1.5924 8.02271 2.77011 9.71034 4.33097 10.0937C3.8288 10.2627 3.30004 10.2878 2.78811 10.167C3.22526 11.8256 4.48526 13.0337 5.97926 13.0658C5.27809 13.7438 4.46896 14.2468 3.6003 14.5447C2.73164 14.8425 1.82132 14.9291 0.923828 14.7992C2.4751 16.0215 4.29516 16.6739 6.15669 16.6747C12.4348 16.6747 15.8677 10.3106 15.8677 4.791C15.8677 4.60773 15.8651 4.42751 15.8587 4.24882C16.5273 3.66082 17.1058 2.92467 17.561 2.08773" fill="white"/>
</g>
<defs>
<clipPath id="clip0_161_193">
<rect width="18" height="16.8" fill="white" transform="translate(0.000488281)"/>
</clipPath>
</defs>
</svg>
